HIERARCHY
ROOT Hips
{
	OFFSET 0.000000 103.266502 0.000000
	CHANNELS 6 Xposition Yposition Zposition Xrotation Yrotation Zrotation 
	JOINT Spine
	{
		OFFSET -0.002400 12.777504 0.315300
		CHANNELS 3 Xrotation Yrotation Zrotation
		JOINT Spine1
		{
			OFFSET -0.002067 5.816869 0.032633
			CHANNELS 3 Xrotation Yrotation Zrotation
			JOINT Spine1_split
			{
				OFFSET -0.002067 5.816869 0.032633
				CHANNELS 3 Xrotation Yrotation Zrotation
				JOINT Spine2
				{
					OFFSET -0.002067 5.816869 0.032633
					CHANNELS 3 Xrotation Yrotation Zrotation
					JOINT Neck
					{
						OFFSET -0.003700 21.199493 -0.826900
						CHANNELS 3 Xrotation Yrotation Zrotation
						JOINT Head
						{
							OFFSET 0.000000 20.442200 4.834800
							CHANNELS 3 Xrotation Yrotation Zrotation
							JOINT HeadTop_End
							{
								OFFSET 0.000000 34.668396 4.968400
								CHANNELS 3 Xrotation Yrotation Zrotation
								End Site
								{
									OFFSET 0.000000 0.000000 0.000000
								}
							}
						}
					}
					JOINT LeftShoulder
					{
						OFFSET 3.288150 8.794197 -1.372250
						CHANNELS 3 Xrotation Yrotation Zrotation
						JOINT LeftShoulder_split
						{
							OFFSET 3.288150 8.794197 -1.372250
							CHANNELS 3 Xrotation Yrotation Zrotation
							JOINT LeftArm
							{
								OFFSET 11.953299 -2.279007 -0.146200
								CHANNELS 3 Xrotation Yrotation Zrotation
								JOINT LeftForeArm
								{
									OFFSET 18.448900 0.000000 0.000000
									CHANNELS 3 Xrotation Yrotation Zrotation
									JOINT LeftHand
									{
										OFFSET 29.527798 0.000000 0.000000
										CHANNELS 3 Xrotation Yrotation Zrotation
										JOINT LeftHandThumb1
										{
											OFFSET 10.739754 -2.369614 9.225399
											CHANNELS 3 Xrotation Yrotation Zrotation
											JOINT LeftHandThumb2
											{
												OFFSET 4.926170 -2.844131 2.844125
												CHANNELS 3 Xrotation Yrotation Zrotation
												JOINT LeftHandThumb3
												{
													OFFSET 4.614891 -2.664413 2.664409
													CHANNELS 3 Xrotation Yrotation Zrotation
													JOINT LeftHandThumb4
													{
														OFFSET 4.432465 -2.559082 2.559083
														CHANNELS 3 Xrotation Yrotation Zrotation
														End Site
														{
															OFFSET 0.000000 0.000000 0.000000
														}
													}
												}
											}
										}
										JOINT LeftHandIndex1
										{
											OFFSET 26.467674 0.187653 6.405298
											CHANNELS 3 Xrotation Yrotation Zrotation
											JOINT LeftHandIndex2
											{
												OFFSET 8.792900 0.000000 0.000000
												CHANNELS 3 Xrotation Yrotation Zrotation
												JOINT LeftHandIndex3
												{
													OFFSET 10.075203 0.000000 0.000000
													CHANNELS 3 Xrotation Yrotation Zrotation
													End Site
													{
														OFFSET 0.000000 0.000000 0.000000
													}
												}
											}
										}
										JOINT LeftHandMiddle1
										{
											OFFSET 25.764404 0.000000 0.000000
											CHANNELS 3 Xrotation Yrotation Zrotation
											JOINT LeftHandMiddle2
											{
												OFFSET 9.393974 0.000000 0.000000
												CHANNELS 3 Xrotation Yrotation Zrotation
												JOINT LeftHandMiddle3
												{
													OFFSET 10.771950 0.000000 0.000000
													CHANNELS 3 Xrotation Yrotation Zrotation
													End Site
													{
														OFFSET 0.000000 0.000000 0.000000
													}
												}
											}
										}
										JOINT LeftHandRing1
										{
											OFFSET 24.660927 0.144547 -6.225808
											CHANNELS 3 Xrotation Yrotation Zrotation
											JOINT LeftHandRing2
											{
												OFFSET 9.393799 0.000000 0.000000
												CHANNELS 3 Xrotation Yrotation Zrotation
												JOINT LeftHandRing3
												{
													OFFSET 9.928497 0.000000 0.000000
													CHANNELS 3 Xrotation Yrotation Zrotation
													End Site
													{
														OFFSET 0.000000 0.000000 0.000000
													}
												}
											}
										}
										JOINT LeftHandPinky1
										{
											OFFSET 23.655350 0.125290 -12.815412
											CHANNELS 3 Xrotation Yrotation Zrotation
											JOINT LeftHandPinky2
											{
												OFFSET 8.425102 0.000000 0.000000
												CHANNELS 3 Xrotation Yrotation Zrotation
												JOINT LeftHandPinky3
												{
													OFFSET 8.147003 0.000000 0.000000
													CHANNELS 3 Xrotation Yrotation Zrotation
													End Site
													{
														OFFSET 0.000000 0.000000 0.000000
													}
												}
											}
										}
									}
								}
							}
						}
					}
					JOINT RightShoulder
					{
						OFFSET -3.249400 8.794197 -1.372250
						CHANNELS 3 Xrotation Yrotation Zrotation
						JOINT RightShoulder_split
						{
							OFFSET -3.249400 8.794197 -1.372250
							CHANNELS 3 Xrotation Yrotation Zrotation
							JOINT RightArm
							{
								OFFSET -11.953299 -2.279007 -0.146200
								CHANNELS 3 Xrotation Yrotation Zrotation
								JOINT RightForeArm
								{
									OFFSET -18.448900 0.000000 0.000000
									CHANNELS 3 Xrotation Yrotation Zrotation
									JOINT RightHand
									{
										OFFSET -29.527802 0.000000 0.000000
										CHANNELS 3 Xrotation Yrotation Zrotation
										JOINT RightHandThumb1
										{
											OFFSET -10.739754 -2.369614 9.225399
											CHANNELS 3 Xrotation Yrotation Zrotation
											JOINT RightHandThumb2
											{
												OFFSET -4.926170 -2.844131 2.844125
												CHANNELS 3 Xrotation Yrotation Zrotation
												JOINT RightHandThumb3
												{
													OFFSET -4.614891 -2.664413 2.664409
													CHANNELS 3 Xrotation Yrotation Zrotation
													JOINT RightHandThumb4
													{
														OFFSET -4.432465 -2.559082 2.559083
														CHANNELS 3 Xrotation Yrotation Zrotation
														End Site
														{
															OFFSET 0.000000 0.000000 0.000000
														}
													}
												}
											}
										}
										JOINT RightHandIndex1
										{
											OFFSET -26.467674 0.187653 6.405298
											CHANNELS 3 Xrotation Yrotation Zrotation
											JOINT RightHandIndex2
											{
												OFFSET -8.792900 0.000000 0.000000
												CHANNELS 3 Xrotation Yrotation Zrotation
												JOINT RightHandIndex3
												{
													OFFSET -10.075203 0.000000 0.000000
													CHANNELS 3 Xrotation Yrotation Zrotation
													End Site
													{
														OFFSET 0.000000 0.000000 0.000000
													}
												}
											}
										}
										JOINT RightHandMiddle1
										{
											OFFSET -25.764404 0.000000 0.000000
											CHANNELS 3 Xrotation Yrotation Zrotation
											JOINT RightHandMiddle2
											{
												OFFSET -9.393974 0.000000 0.000000
												CHANNELS 3 Xrotation Yrotation Zrotation
												JOINT RightHandMiddle3
												{
													OFFSET -10.771950 0.000000 0.000000
													CHANNELS 3 Xrotation Yrotation Zrotation
													End Site
													{
														OFFSET 0.000000 0.000000 0.000000
													}
												}
											}
										}
										JOINT RightHandRing1
										{
											OFFSET -24.660927 0.144547 -6.225808
											CHANNELS 3 Xrotation Yrotation Zrotation
											JOINT RightHandRing2
											{
												OFFSET -9.393799 0.000000 0.000000
												CHANNELS 3 Xrotation Yrotation Zrotation
												JOINT RightHandRing3
												{
													OFFSET -9.928497 0.000000 0.000000
													CHANNELS 3 Xrotation Yrotation Zrotation
													End Site
													{
														OFFSET 0.000000 0.000000 0.000000
													}
												}
											}
										}
										JOINT RightHandPinky1
										{
											OFFSET -23.655350 0.125290 -12.815412
											CHANNELS 3 Xrotation Yrotation Zrotation
											JOINT RightHandPinky2
											{
												OFFSET -8.425102 0.000000 0.000000
												CHANNELS 3 Xrotation Yrotation Zrotation
												JOINT RightHandPinky3
												{
													OFFSET -8.147003 0.000000 0.000000
													CHANNELS 3 Xrotation Yrotation Zrotation
													End Site
													{
														OFFSET 0.000000 0.000000 0.000000
													}
												}
											}
										}
									}
								}
							}
						}
					}
				}
			}
		}
	}
	JOINT LeftUpLeg
	{
		OFFSET 11.394100 -6.187798 -0.413800
		CHANNELS 3 Xrotation Yrotation Zrotation
		JOINT LeftLeg
		{
			OFFSET 0.430247 -32.302673 3.732800
			CHANNELS 3 Xrotation Yrotation Zrotation
			JOINT LeftFoot
			{
				OFFSET -0.430247 -48.264931 -6.423300
				CHANNELS 3 Xrotation Yrotation Zrotation
				JOINT LeftToeBase
				{
					OFFSET 4.230900 -16.068199 23.438400
					CHANNELS 3 Xrotation Yrotation Zrotation
					JOINT LeftToe_End
					{
						OFFSET 4.510700 0.695400 19.974600
						CHANNELS 3 Xrotation Yrotation Zrotation
						End Site
						{
							OFFSET 0.000000 0.000000 0.000000
						}
					}
				}
			}
		}
	}
	JOINT RightUpLeg
	{
		OFFSET -11.333700 -6.187798 -0.413800
		CHANNELS 3 Xrotation Yrotation Zrotation
		JOINT RightLeg
		{
			OFFSET -0.430392 -32.302628 3.733000
			CHANNELS 3 Xrotation Yrotation Zrotation
			JOINT RightFoot
			{
				OFFSET 0.430392 -48.264973 -6.423500
				CHANNELS 3 Xrotation Yrotation Zrotation
				JOINT RightToeBase
				{
					OFFSET -4.230900 -16.068199 23.438400
					CHANNELS 3 Xrotation Yrotation Zrotation
					JOINT RightToe_End
					{
						OFFSET -4.510700 0.695400 19.974600
						CHANNELS 3 Xrotation Yrotation Zrotation
						End Site
						{
							OFFSET 0.000000 0.000000 0.000000
						}
					}
				}
			}
		}
	}
}
MOTION
Frames: 5
Frame Time: 0.016667
-0.152005 100.700912 0.199042 -3.660553 3.311537 2.299732 4.351984 -0.754721 -0.639999 1.013959 -0.170731 0.054478 0.000000 0.000000 0.000000 1.013875 -0.177046 0.069540 0.942214 -0.544783 0.126543 -6.488562 -5.987211 -1.414550 0.000000 0.000000 0.000000 0.674921 -2.078744 -16.856782 0.000000 0.000000 0.000000 4.778423 -6.136923 -37.933856 0.000004 -66.118936 -0.000000 -4.833203 -7.576958 -60.543050 -7.220047 -16.942342 15.004582 8.348845 0.689829 4.880232 -0.062063 -18.560329 11.893761 -0.000001 -0.000000 0.000000 -0.978076 -1.241631 -15.183686 1.002368 3.278834 -33.989688 0.000000 0.000000 0.000000 0.805739 5.211335 -29.108818 1.066674 3.372090 -35.098156 -0.000002 -0.000003 0.000002 6.496552 12.626984 -37.570828 1.949518 4.363742 -48.129092 0.000000 -0.000001 0.000001 9.161874 25.681020 -47.169857 0.954743 3.207179 -33.147820 0.000000 -0.000000 -0.000001 0.088522 8.205038 21.087097 0.000000 0.000000 0.000000 -3.899873 6.709551 55.252590 0.000003 9.850088 -0.000020 33.602396 9.190971 0.661907 9.076641 11.156481 -7.011592 22.190721 -26.308873 10.011999 6.596528 -21.950689 -17.823648 -0.000000 0.000001 -0.000000 3.041029 7.562635 51.714624 1.573263 -3.491494 48.501894 -0.000000 0.000001 -0.000001 -3.185438 -4.004869 67.076836 1.304817 -3.234632 43.928300 -0.000000 0.000000 0.000000 -4.626542 -1.781860 57.138282 2.278814 -4.005240 59.262744 0.000000 0.000000 0.000000 -7.034701 -9.338183 44.934186 1.908685 -3.761112 53.801636 0.000000 0.000001 0.000000 -3.346890 8.258536 3.664139 15.725995 3.825320 0.672891 -8.098967 0.527643 -4.349961 -0.999560 -0.000001 -0.000000 0.000000 -0.000001 0.000000 -4.406647 -11.518017 -10.371215 17.464193 -5.031187 -1.305429 -8.559917 -1.867592 8.782127 -2.518103 -0.000007 0.000004 0.000000 0.000002 0.000000 
-0.146376 100.702042 0.217978 -3.660863 3.394928 2.324918 4.296765 -0.719834 -0.654317 1.003490 -0.162740 0.054478 0.000000 0.000000 0.000000 1.003402 -0.169834 0.069539 0.967347 -0.361659 0.089158 -6.296965 -5.810300 -1.351242 -0.000000 0.000000 0.000000 0.668922 -2.098532 -16.857002 0.000000 0.000000 0.000000 4.777336 -6.116300 -37.949354 0.000048 -66.118956 0.000055 -4.804796 -7.604654 -60.565364 -7.220048 -16.942346 15.004577 8.348864 0.690239 4.880285 -0.062066 -18.560330 11.893750 -0.000001 -0.000000 -0.000000 -0.984009 -1.230249 -15.277779 0.998181 3.272619 -33.916302 0.000003 0.000003 -0.000003 0.808644 5.216534 -29.166950 1.066668 3.372078 -35.098143 -0.000001 0.000003 0.000000 6.505272 12.626495 -37.619582 1.947866 4.362266 -48.107365 -0.000001 -0.000000 -0.000001 9.177773 25.678967 -47.209919 0.954740 3.207161 -33.147810 -0.000002 0.000001 -0.000001 0.189313 8.114528 20.696771 0.000000 0.000000 0.000000 -3.948092 6.617986 55.456976 0.000002 9.661271 -0.000009 33.524717 9.281790 1.219425 8.533741 11.109491 -7.539716 22.252714 -26.276127 10.224540 6.552862 -21.210010 -17.627835 -0.000004 -0.000000 0.000002 3.035202 7.424116 51.008898 1.532230 -3.454820 47.824599 0.000001 -0.000001 0.000001 -3.314728 -3.863943 66.407081 1.290200 -3.219417 43.668599 0.000000 -0.000004 -0.000000 -4.917028 -1.736451 57.961696 2.213078 -3.965490 58.316934 0.000001 -0.000000 -0.000000 -7.357678 -8.917699 46.621054 1.809459 -3.686591 52.273613 -0.000001 0.000002 -0.000000 -3.356666 8.274701 3.658187 15.739095 3.764039 0.636868 -8.103462 0.530979 -4.286065 -0.943206 0.000011 -0.000000 0.000000 -0.000001 -0.000000 -4.367398 -11.517584 -10.391139 17.453061 -5.115168 -1.305394 -8.578105 -1.875723 8.806806 -2.518103 -0.000003 0.000004 -0.000000 -0.000003 -0.000000 
-0.140825 100.704285 0.237931 -3.666344 3.489058 2.354799 4.242856 -0.687739 -0.666328 0.993090 -0.154234 0.054478 0.000000 0.000000 0.000000 0.993004 -0.161422 0.069539 0.993620 -0.171604 0.051405 -6.089673 -5.592142 -1.285595 -0.000000 -0.000000 0.000000 0.669284 -2.097339 -16.856985 0.000000 0.000000 0.000000 4.776129 -6.115299 -37.967738 0.000030 -66.105262 0.000018 -4.795302 -7.620674 -60.578601 -7.220050 -16.942351 15.004580 8.343778 0.679845 4.884448 -0.062061 -18.560317 11.893755 -0.000001 -0.000000 0.000001 -0.987265 -1.223916 -15.330085 0.996324 3.269880 -33.884241 -0.000001 0.000002 0.000001 0.810377 5.219602 -29.201586 1.066665 3.372096 -35.098163 0.000001 0.000000 0.000001 6.508813 12.626296 -37.639417 1.946222 4.360794 -48.085648 -0.000004 0.000000 0.000001 9.181776 25.678467 -47.219997 0.954735 3.207166 -33.147813 0.000000 0.000003 0.000001 0.288256 8.054238 20.313281 0.000000 0.000000 0.000000 -4.008384 6.518860 55.627137 0.000004 9.463818 -0.000026 33.489558 9.471070 1.838421 7.972946 11.044955 -8.116752 22.324009 -26.238151 10.469546 6.488871 -20.386347 -17.437526 0.000001 0.000001 0.000001 3.024037 7.283627 50.293589 1.491108 -3.417182 47.138479 -0.000000 -0.000002 0.000001 -3.452778 -3.715140 65.737046 1.275074 -3.203523 43.398564 0.000001 -0.000001 -0.000000 -5.217637 -1.713537 58.887070 2.144029 -3.922146 57.312985 -0.000001 0.000001 -0.000001 -7.711640 -8.515087 48.478507 1.703793 -3.602538 50.611538 -0.000000 -0.000003 0.000000 -3.340768 8.284357 3.639643 15.716393 3.699748 0.610842 -8.093254 0.531204 -4.247369 -0.919571 0.000004 -0.000002 -0.000000 0.000000 0.000000 -4.316587 -11.517272 -10.413302 17.437423 -5.206688 -1.305435 -8.596797 -1.888452 8.833412 -2.518103 -0.000005 0.000004 -0.000000 0.000002 0.000000 
-0.131287 100.707756 0.258687 -3.673330 3.593216 2.394481 4.189711 -0.656648 -0.675917 0.983113 -0.144933 0.054478 0.000000 0.000000 0.000000 0.983031 -0.152244 0.066660 1.021001 0.026481 0.013595 -5.859409 -5.331690 -1.206530 -0.000000 0.000000 0.000000 0.672029 -2.087340 -16.865549 0.000000 0.000000 0.000000 4.773022 -6.120770 -37.983461 0.000018 -66.086158 -0.000008 -4.796952 -7.633353 -60.590485 -7.220046 -16.942346 15.004578 8.332869 0.653621 4.892517 -0.061163 -18.560752 11.897663 -0.000000 0.000000 0.000002 -0.987893 -1.222736 -15.339794 0.996461 3.270076 -33.886389 0.000002 -0.000001 -0.000001 0.810725 5.220243 -29.208665 1.066685 3.372078 -35.098150 -0.000001 -0.000001 -0.000001 6.508704 12.626313 -37.638830 1.945101 4.359786 -48.070953 -0.000005 -0.000001 -0.000002 9.177531 25.679023 -47.209342 0.954747 3.207180 -33.147806 -0.000001 0.000001 0.000001 0.391140 7.989680 19.911492 0.000000 0.000000 0.000000 -4.059860 6.438538 55.791591 0.000002 9.308320 -0.000005 33.459761 9.705526 2.456260 7.393734 10.964021 -8.735715 22.404757 -26.196677 10.745445 6.405748 -19.486748 -17.252962 0.000001 -0.000000 0.000002 3.009640 7.138845 49.568691 1.449916 -3.378563 46.443449 -0.000000 0.000000 0.000001 -3.597559 -3.558805 65.066117 1.259524 -3.187037 43.119602 0.000001 0.000001 -0.000000 -5.523626 -1.714912 59.897897 2.072298 -3.875280 56.257847 -0.000001 0.000001 -0.000000 -8.097101 -8.141694 50.479906 1.593493 -3.509258 48.833254 0.000000 -0.000001 0.000000 -3.311236 8.288235 3.602002 15.675913 3.637099 0.591923 -8.076747 0.530734 -4.209737 -0.909058 -0.000004 0.000000 -0.000000 -0.000001 -0.000000 -4.262035 -11.516703 -10.447008 17.420519 -5.305801 -1.305511 -8.615893 -1.905169 8.865237 -2.518104 -0.000007 0.000004 0.000000 -0.000001 -0.000000 
-0.117493 100.711754 0.281533 -3.679448 3.700249 2.438491 4.135840 -0.624546 -0.681355 0.973502 -0.135125 0.054478 0.000000 0.000000 0.000000 0.973426 -0.142599 0.063642 1.049471 0.229841 -0.024776 -5.607308 -5.052333 -1.113998 -0.000000 0.000000 0.000000 0.674783 -2.075989 -16.886587 0.000000 0.000000 0.000000 4.763881 -6.120303 -37.993272 -0.000003 -66.070694 -0.000022 -4.801407 -7.648573 -60.604835 -7.220048 -16.942344 15.004580 8.318179 0.616272 4.903013 -0.059608 -18.561504 11.904415 -0.000000 -0.000000 0.000000 -0.986152 -1.226073 -15.312176 0.997847 3.272122 -33.910479 0.000002 0.000003 -0.000002 0.809712 5.218460 -29.188615 1.066664 3.372075 -35.098143 -0.000000 0.000000 -0.000006 6.506823 12.626414 -37.628373 1.944995 4.359695 -48.069294 -0.000001 0.000001 -0.000000 9.169849 25.680000 -47.189996 0.954741 3.207198 -33.147820 -0.000001 0.000000 0.000003 0.496742 7.917475 19.494026 0.000000 0.000000 0.000000 -4.102384 6.374799 55.961403 0.000001 9.187379 -0.000017 33.427680 9.942662 3.036229 6.798115 10.868247 -9.391684 22.496755 -26.157208 11.051477 6.304048 -18.518337 -17.076409 0.000001 -0.000001 -0.000000 2.991407 6.988222 48.837792 1.408900 -3.339143 45.743437 0.000001 0.000003 -0.000000 -3.747435 -3.396092 64.399627 1.243931 -3.170313 42.838465 0.000001 0.000001 -0.000000 -5.829311 -1.746452 61.000228 1.998231 -3.824886 55.155000 0.000001 -0.000000 -0.000001 -8.506056 -7.806783 52.630644 1.479429 -3.406331 46.942517 -0.000000 0.000001 0.000000 -3.281814 8.285955 3.552033 15.638620 3.582296 0.577700 -8.063452 0.531650 -4.162498 -0.902878 -0.000001 0.000000 -0.000000 0.000001 -0.000000 -4.205335 -11.516014 -10.488438 17.400981 -5.405090 -1.305596 -8.635404 -1.925253 8.899450 -2.518103 -0.000006 0.000004 0.000000 -0.000001 -0.000000 
